<svg width="45" height="43" viewBox="0 0 45 43" fill="none" xmlns="http://www.w3.org/2000/svg">
<path d="M42.8894 10.041H2.11043C1.72216 10.041 1.40735 10.3407 1.40735 10.7104V38.1556C1.40735 38.5253 1.72216 38.825 2.11043 38.825H42.8894C43.2777 38.825 43.5925 38.5253 43.5925 38.1556V10.7104C43.5925 10.3407 43.2777 10.041 42.8894 10.041Z" fill="#EDEBFD"/>
<path d="M43.5926 10.7104V38.1556C43.5926 38.5254 43.278 38.825 42.8895 38.825H38.671C39.0594 38.825 39.3741 38.5254 39.3741 38.1556V10.7104C39.3741 10.3405 39.0594 10.041 38.671 10.041H42.8895C43.278 10.041 43.5926 10.3405 43.5926 10.7104Z" fill="#D2D2FC"/>
<path d="M15.4691 20.0818H7.03208C5.86909 20.0818 4.92282 20.9828 4.92282 22.09V38.1555C4.92282 38.5252 5.23763 38.8249 5.62591 38.8249H16.8753C17.2635 38.8249 17.5784 38.5252 17.5784 38.1555V22.09C17.5784 20.9828 16.6322 20.0818 15.4691 20.0818Z" fill="#AA7569"/>
<path d="M17.5784 22.09V38.1555C17.5784 38.5254 17.2638 38.8249 16.8753 38.8249H12.6568C13.0453 38.8249 13.3599 38.5254 13.3599 38.1555V22.09C13.3599 20.983 12.4134 20.0818 11.2507 20.0818H15.4692C16.6319 20.0818 17.5784 20.983 17.5784 22.09Z" fill="#9A6758"/>
<path d="M37.9679 24.0983H22.5001C22.1118 24.0983 21.797 24.398 21.797 24.7677V31.4616C21.797 32.5689 22.7432 33.4698 23.9062 33.4698H36.5618C37.7248 33.4698 38.671 32.5689 38.671 31.4616V24.7677C38.671 24.398 38.3563 24.0983 37.9679 24.0983Z" fill="#C8EFFD"/>
<path d="M38.6709 24.7677V31.4616C38.6709 32.5686 37.7244 33.4698 36.5616 33.4698H32.3431C33.5059 33.4698 34.4524 32.5686 34.4524 31.4616V24.7677C34.4524 24.3978 34.1378 24.0983 33.7493 24.0983H37.9678C38.3563 24.0983 38.6709 24.3978 38.6709 24.7677Z" fill="#A0E1FD"/>
<path d="M39.8828 22.9009L38.9111 21.0507C38.5974 20.4532 37.9664 20.082 37.2648 20.082H23.2031C22.5014 20.082 21.8704 20.4533 21.5567 21.0507C20.5306 23.0045 20.3907 23.1453 20.3907 23.6847C20.3907 24.6511 21.2165 25.4372 22.2314 25.4372H38.2364C39.6019 25.4371 40.4933 24.0633 39.8828 22.9009Z" fill="#E48C9B"/>
<path d="M40.0771 23.6849C40.0771 24.6505 39.251 25.437 38.2368 25.437H34.0183C35.3851 25.437 36.2748 24.0592 35.6644 22.9008L34.6924 21.0508C34.3786 20.4534 33.7476 20.0818 33.0463 20.0818H37.2648C37.9661 20.0818 38.5971 20.4534 38.9109 21.0508C39.9274 22.9856 40.0771 23.1361 40.0771 23.6849Z" fill="#CC5B6F"/>
<path d="M8.43828 30.7921C8.05001 30.7921 7.7352 30.4924 7.7352 30.1228V28.784C7.7352 28.4143 8.05001 28.1146 8.43828 28.1146C8.82656 28.1146 9.14137 28.4143 9.14137 28.784V30.1228C9.14137 30.4924 8.82665 30.7921 8.43828 30.7921Z" fill="#EDEBFD"/>
<path d="M9.84446 8.70217C9.84446 10.1094 9.85597 10.2359 9.80843 10.6083C9.51313 12.9261 7.43463 14.7267 4.92286 14.7267C2.41021 14.7267 0.330835 12.9252 0.0372968 10.6066C-0.0104251 10.2342 0.00126368 10.104 0.00126368 8.70217C0.00126368 8.33233 0.315894 8.03278 0.704349 8.03278H9.14138C9.52983 8.03278 9.84446 8.33233 9.84446 8.70217Z" fill="#F1CC76"/>
<path d="M9.84444 8.70217V10.041C9.84444 13.4967 6.04708 15.7415 2.8136 14.2741C4.47464 13.521 5.62594 11.9069 5.62594 10.041V8.70217C5.62594 8.33233 5.31131 8.03278 4.92285 8.03278H9.14136C9.52981 8.03278 9.84444 8.33233 9.84444 8.70217Z" fill="#EBB15D"/>
<path d="M44.9988 8.70217C44.9988 10.1087 45.0103 10.2355 44.9627 10.6066C44.6692 12.9252 42.5898 14.7267 40.0772 14.7267C37.5654 14.7267 35.4869 12.9261 35.1916 10.6083C35.1436 10.2325 35.1556 10.0994 35.1556 8.70217C35.1556 8.33233 35.4702 8.03278 35.8587 8.03278H44.2957C44.6841 8.03278 44.9988 8.33233 44.9988 8.70217Z" fill="#F1CC76"/>
<path d="M44.9987 8.70217V10.041C44.9987 13.3109 41.5417 15.5938 38.3194 14.418C40.1677 13.7427 41.4833 12.0358 41.4833 10.041V8.70217C41.4833 8.33233 41.1687 8.03278 40.7802 8.03278H44.2957C44.6841 8.03278 44.9987 8.33233 44.9987 8.70217Z" fill="#EBB15D"/>
<path d="M44.9988 8.70217C44.9988 10.1087 45.0103 10.2355 44.9627 10.6066C44.51 10.7509 45.0191 10.7104 35.8587 10.7104C35.6258 10.7104 35.4017 10.6744 35.1916 10.6083C35.1436 10.2325 35.1556 10.0994 35.1556 8.70217C35.1556 8.33233 35.4702 8.03278 35.8587 8.03278H44.2957C44.6841 8.03278 44.9988 8.33233 44.9988 8.70217Z" fill="#EBB15D"/>
<path d="M44.9626 8.49053L42.471 1.37276C42.183 0.551666 41.3788 0 40.4699 0H34.4524C34.0188 0 33.6875 0.371013 33.7588 0.779428L35.165 8.81218C35.2216 9.13491 35.5148 9.37154 35.8586 9.37154H44.2956C44.7749 9.37154 45.1142 8.9238 44.9626 8.49053Z" fill="#F1CC76"/>
<path d="M44.2955 9.37154H40.78C41.2606 9.37154 41.5979 8.92305 41.4471 8.49045L38.9555 1.3731C38.6673 0.551415 37.8631 0 36.9544 0H40.4698C41.3785 0 42.1827 0.551415 42.471 1.3731L44.9625 8.49045C45.1133 8.92305 44.776 9.37154 44.2955 9.37154Z" fill="#EBB15D"/>
<path d="M9.84446 8.70217C9.84446 10.1094 9.85597 10.2359 9.80843 10.6083C9.35406 10.7513 9.90027 10.7104 0.704349 10.7104C0.475846 10.7104 0.24998 10.6744 0.0372968 10.6066C-0.0104251 10.2342 0.00126368 10.104 0.00126368 8.70217C0.00126368 8.33233 0.315894 8.03278 0.704349 8.03278H9.14138C9.52983 8.03278 9.84446 8.33233 9.84446 8.70217Z" fill="#EBB15D"/>
<path d="M10.5489 0H4.53137C3.62245 0 2.81839 0.551666 2.53012 1.37318L0.0385629 8.49053C-0.112864 8.92347 0.225935 9.37154 0.705615 9.37154H9.14264C9.48637 9.37154 9.77964 9.13499 9.83624 8.81218L11.2424 0.779428C11.3137 0.3721 10.9838 0 10.5489 0Z" fill="#F1CC76"/>
<path d="M11.2411 0.779846L9.83489 8.8126C9.77865 9.13474 9.48511 9.37154 9.14148 9.37154H4.83508C5.17872 9.37154 5.47225 9.13474 5.5285 8.8126L6.93467 0.779846C7.00656 0.372686 6.67549 0 6.24125 0H10.5476C10.9813 0 11.313 0.372184 11.2411 0.779846Z" fill="#EBB15D"/>
<path d="M18.2815 8.70217C18.2815 10.1191 18.2926 10.237 18.2454 10.6049C17.9528 12.9235 15.8734 14.7267 13.3599 14.7267C10.8472 14.7267 8.76872 12.9252 8.47431 10.6074C8.42632 10.2316 8.43827 10.0988 8.43827 8.70217C8.43827 8.33233 8.7529 8.03278 9.14136 8.03278H17.5784C17.9668 8.03278 18.2815 8.33233 18.2815 8.70217Z" fill="#E48C9B"/>
<path d="M18.2815 8.70217V10.041C18.2815 13.4967 14.4842 15.7415 11.2507 14.2741C12.9117 13.521 14.063 11.9069 14.063 10.041V8.70217C14.063 8.33233 13.7484 8.03278 13.3599 8.03278H17.5784C17.9669 8.03278 18.2815 8.33233 18.2815 8.70217Z" fill="#CC5B6F"/>
<path d="M36.5617 8.70217C36.5617 10.1087 36.5733 10.2346 36.5257 10.6074C36.2312 12.9252 34.1528 14.7267 31.6401 14.7267C29.1266 14.7267 27.0472 12.9235 26.7545 10.6049C26.7066 10.2307 26.7185 10.0995 26.7185 8.70217C26.7185 8.33233 27.0331 8.03278 27.4216 8.03278H35.8586C36.2471 8.03278 36.5617 8.33233 36.5617 8.70217Z" fill="#E48C9B"/>
<path d="M36.5617 8.70217V10.041C36.5617 13.3109 33.1046 15.5938 29.8824 14.418C31.7306 13.7427 33.0462 12.0358 33.0462 10.041V8.70217C33.0462 8.33233 32.7316 8.03278 32.3432 8.03278H35.8586C36.247 8.03278 36.5617 8.33233 36.5617 8.70217Z" fill="#CC5B6F"/>
<path d="M36.5617 8.70217C36.5617 10.1087 36.5733 10.2346 36.5257 10.6074C36.0715 10.7522 36.5759 10.7104 27.4216 10.7104C27.1896 10.7104 26.9655 10.6735 26.7545 10.6049C26.7066 10.2307 26.7185 10.0995 26.7185 8.70217C26.7185 8.33233 27.0331 8.03278 27.4216 8.03278H35.8586C36.2471 8.03278 36.5617 8.33233 36.5617 8.70217Z" fill="#CC5B6F"/>
<path d="M36.5523 8.59211L35.1462 0.559364C35.0896 0.236631 34.7964 0 34.4526 0H26.7186C26.3076 0 25.9838 0.334782 26.0179 0.725039L26.721 8.75779C26.7514 9.1047 27.056 9.37154 27.4217 9.37154H35.8587C36.2924 9.37154 36.6237 9.00061 36.5523 8.59211Z" fill="#E48C9B"/>
<path d="M35.8586 9.37154H32.3432C32.7768 9.37154 33.1086 8.99936 33.0366 8.5917L31.6305 0.558946C31.5742 0.236799 31.2807 0 30.937 0H34.4525C34.7961 0 35.0896 0.236799 35.1459 0.558946L36.552 8.5917C36.6239 8.99886 36.2929 9.37154 35.8586 9.37154Z" fill="#CC5B6F"/>
<path d="M18.2815 8.70217C18.2815 10.1191 18.2926 10.237 18.2454 10.6049C17.7917 10.7525 18.3562 10.7104 9.14136 10.7104C8.9111 10.7104 8.68699 10.6752 8.47431 10.6074C8.42632 10.2316 8.43827 10.0988 8.43827 8.70217C8.43827 8.33233 8.7529 8.03278 9.14136 8.03278H17.5784C17.9668 8.03278 18.2815 8.33233 18.2815 8.70217Z" fill="#CC5B6F"/>
<path d="M18.2816 0H10.5476C10.2039 0 9.91062 0.236548 9.85402 0.559364L8.44785 8.59211C8.37675 8.99944 8.70649 9.37154 9.14144 9.37154H17.5785C17.9442 9.37154 18.2488 9.1047 18.2792 8.75779L18.9823 0.725039C19.0164 0.335033 18.6929 0 18.2816 0Z" fill="#E48C9B"/>
<path d="M18.9818 0.724621L18.2787 8.75737C18.2489 9.10462 17.9439 9.37154 17.5783 9.37154H13.3598C13.7254 9.37154 14.0303 9.10462 14.0602 8.75737L14.7633 0.724621C14.7982 0.336539 14.4752 0 14.0629 0H18.2814C18.6938 0 19.0167 0.336539 18.9818 0.724621Z" fill="#CC5B6F"/>
<path d="M28.1247 8.70217C28.1247 9.43683 28.1514 9.91788 27.9639 10.6426C27.3636 12.9846 25.1419 14.7267 22.5 14.7267C19.8582 14.7267 17.6364 12.9846 17.0362 10.6426C16.8486 9.91813 16.8753 9.43449 16.8753 8.70217C16.8753 8.33233 17.19 8.03278 17.5784 8.03278H27.4216C27.8101 8.03278 28.1247 8.33233 28.1247 8.70217Z" fill="#F1CC76"/>
<path d="M28.1247 8.70217V9.37157C28.1247 13.0276 24.3447 15.5978 20.7423 14.4581C22.986 13.7544 24.6092 11.7404 24.6092 9.37157V8.70217C24.6092 8.33233 24.2946 8.03278 23.9062 8.03278H27.4216C27.81 8.03278 28.1247 8.33233 28.1247 8.70217Z" fill="#EBB15D"/>
<path d="M28.1247 8.70217C28.1247 9.43683 28.1514 9.91788 27.9639 10.6426C27.5801 10.7394 28.3095 10.7104 17.5784 10.7104C17.3947 10.7104 17.2119 10.6869 17.0362 10.6426C16.8486 9.91813 16.8753 9.43449 16.8753 8.70217C16.8753 8.33233 17.19 8.03278 17.5784 8.03278H27.4216C27.8101 8.03278 28.1247 8.33233 28.1247 8.70217Z" fill="#EBB15D"/>
<path d="M28.1222 8.64656L27.4191 0.613813C27.3887 0.266899 27.0841 6.10352e-05 26.7184 6.10352e-05H18.2814C17.9157 6.10352e-05 17.6111 0.266899 17.5807 0.613813L16.8776 8.64656C16.8435 9.03657 17.167 9.3716 17.5783 9.3716H27.4215C27.8325 9.37152 28.1563 9.03674 28.1222 8.64656Z" fill="#F1CC76"/>
<path d="M27.4216 9.37154H23.2031C23.6154 9.37154 23.9384 9.035 23.9035 8.64692L23.2004 0.614171C23.1705 0.266922 22.8656 0 22.5 0H26.7185C27.0841 0 27.3891 0.266922 27.4189 0.614171L28.122 8.64692C28.1569 9.035 27.834 9.37154 27.4216 9.37154Z" fill="#EBB15D"/>
<path d="M42.8893 37.4861H2.11035C0.947276 37.4861 0.00109863 38.387 0.00109863 39.4943V40.8331C0.00109863 41.9403 0.947276 42.8413 2.11035 42.8413H42.8893C44.0524 42.8413 44.9986 41.9403 44.9986 40.8331V39.4943C44.9986 38.387 44.0524 37.4861 42.8893 37.4861Z" fill="#595965"/>
</svg>
